# xmcd CD database file
#
# Track frame offsets:
#	150
#	16800
#	29228
#	39855
#	52446
#	60874
#	72179
#	84352
#	96685
#	109183
#	125122
#
# Disc length: 1919 seconds
#
# Revision: 0
# Processed by: cddbd v1.5.2PL0 Copyright (c) Steve Scherf et al.
# Submitted via: CDex 1.70beta2
#
DISCID=9a077d0b
DTITLE=Frankie Martin - More
DYEAR=2012
DGENRE=Jazz
TTITLE0=Feelin' Good
TTITLE1=Summertime
TTITLE2=More
TTITLE3=Lady is a tramp
TTITLE4=Live 'til I die
TTITLE5=Fly me to the moon
TTITLE6=That Ol' Devil Called Love
TTITLE7=Summer Wiind
TTITLE8=I would rather go Blind
TTITLE9=Make you Feel my Love
TTITLE10=One for my baby and one for the road
EXTD=YEAR: 2012
EXTT0=
EXTT1=
EXTT2=
EXTT3=
EXTT4=
EXTT5=
EXTT6=
EXTT7=
EXTT8=
EXTT9=
EXTT10=
PLAYORDER=
